<svg width="38" height="38" viewBox="0 0 38 38" fill="none" xmlns="http://www.w3.org/2000/svg">
<rect x="1" y="1" width="36" height="36" rx="18" stroke="#212529"/>
<path d="M13.5 19C11.0147 19 9.00001 21.0147 9.00001 23.5C9.00001 25.9853 11.0147 28 13.5 28C15.6409 28 17.4326 26.505 17.8881 24.5019H20.112C20.5674 26.505 22.3591 28 24.5 28C26.9853 28 29 25.9853 29 23.5C29 21.0147 26.9853 19 24.5 19C22.1836 19 20.276 20.7502 20.0274 23.0003H17.9726C17.724 20.7502 15.8164 19 13.5 19ZM24.5 20.5C26.1569 20.5 27.5 21.8431 27.5 23.5C27.5 25.1569 26.1569 26.5 24.5 26.5C22.8432 26.5 21.5 25.1569 21.5 23.5C21.5 21.8431 22.8432 20.5 24.5 20.5ZM13.5 20.5C15.1569 20.5 16.5 21.8431 16.5 23.5C16.5 25.1569 15.1569 26.5 13.5 26.5C11.8432 26.5 10.5 25.1569 10.5 23.5C10.5 21.8431 11.8432 20.5 13.5 20.5ZM19 16.25C15.6107 16.25 12.4699 16.5895 9.57823 17.2699C9.17503 17.3648 8.92508 17.7686 9.01995 18.1718C9.11482 18.575 9.51859 18.8249 9.92179 18.7301C12.6968 18.0771 15.7227 17.75 19 17.75C22.2773 17.75 25.3032 18.0771 28.0782 18.7301C28.4814 18.8249 28.8852 18.575 28.9801 18.1718C29.0749 17.7686 28.825 17.3648 28.4218 17.2699C25.5301 16.5895 22.3894 16.25 19 16.25ZM15.2998 10.25C14.2769 10.25 13.3444 10.8169 12.8702 11.7116L12.7868 11.8831L11.3147 15.1954C11.1464 15.5739 11.3169 16.0171 11.6954 16.1854C12.0424 16.3396 12.4437 16.2092 12.6378 15.8948L12.6854 15.8046L14.1575 12.4923C14.3399 12.082 14.7264 11.8042 15.1663 11.7571L15.2998 11.75H22.7003C23.1493 11.75 23.5601 11.9904 23.7818 12.3733L23.8425 12.4923L25.3147 15.8046C25.4829 16.1831 25.9261 16.3536 26.3046 16.1854C26.6516 16.0311 26.8237 15.6459 26.7204 15.2912L26.6854 15.1954L25.2132 11.8831C24.7978 10.9484 23.901 10.3265 22.8909 10.2566L22.7003 10.25H15.2998Z" fill="#212529"/>
</svg>
