<svg width="38" height="38" viewBox="0 0 38 38" fill="none" xmlns="http://www.w3.org/2000/svg">
<rect x="1" y="1" width="36" height="36" rx="18" stroke="#212529"/>
<g clip-path="url(#clip0_10_124)">
<path d="M19 14.5312C16.3188 14.5312 14.125 16.725 14.125 19.4062C14.125 22.0875 16.3188 24.2812 19 24.2812C21.6812 24.2812 23.875 22.0875 23.875 19.4062C23.875 16.725 21.6812 14.5312 19 14.5312ZM19 22.6562C17.2125 22.6562 15.75 21.1938 15.75 19.4062C15.75 17.6187 17.2125 16.1562 19 16.1562C20.7875 16.1562 22.25 17.6187 22.25 19.4062C22.25 21.1938 20.7875 22.6562 19 22.6562Z" fill="#212529"/>
<path d="M19 26.475C15.9734 26.475 13.0687 27.7344 10.9969 29.9484L10.4484 30.5375L11.6266 31.6547L12.175 31.0656C13.9625 29.1563 16.3797 28.1 19 28.1C21.6203 28.1 24.0375 29.1563 25.825 31.0656L26.3734 31.6547L27.5515 30.5375L27.0031 29.9484C24.9312 27.7547 22.0265 26.475 19 26.475Z" fill="#212529"/>
<path d="M25.7031 15.7297V17.3547C27.6125 17.3547 29.3797 18.1266 30.7 19.5281L31.8781 18.4109C30.2938 16.7047 28.0391 15.7297 25.7031 15.7297Z" fill="#212529"/>
<path d="M29.5828 10.0625C29.5828 7.92969 27.8359 6.18282 25.7031 6.18282C23.5703 6.18282 21.8234 7.92969 21.8234 10.0625C21.8234 12.1953 23.5703 13.9422 25.7031 13.9422C27.8359 13.9422 29.5828 12.1953 29.5828 10.0625ZM23.4484 10.0625C23.4484 8.82344 24.4641 7.80782 25.7031 7.80782C26.9422 7.80782 27.9578 8.82344 27.9578 10.0625C27.9578 11.3016 26.9422 12.3172 25.7031 12.3172C24.4641 12.3172 23.4484 11.3016 23.4484 10.0625Z" fill="#212529"/>
<path d="M12.2969 15.7297C9.96095 15.7297 7.70626 16.7047 6.12189 18.4109L7.30001 19.5281C8.60001 18.1266 10.3875 17.3547 12.2969 17.3547V15.7297Z" fill="#212529"/>
<path d="M16.1765 10.0625C16.1765 7.92969 14.4297 6.18282 12.2969 6.18282C10.1641 6.18282 8.41718 7.92969 8.41718 10.0625C8.41718 12.1953 10.1641 13.9422 12.2969 13.9422C14.4297 13.9422 16.1765 12.1953 16.1765 10.0625ZM12.2969 12.3172C11.0578 12.3172 10.0422 11.3016 10.0422 10.0625C10.0422 8.82344 11.0578 7.80782 12.2969 7.80782C13.5359 7.80782 14.5516 8.82344 14.5516 10.0625C14.5516 11.3016 13.5359 12.3172 12.2969 12.3172Z" fill="#212529"/>
</g>
<defs>
<clipPath id="clip0_10_124">
<rect width="26" height="26" fill="white" transform="translate(6 6)"/>
</clipPath>
</defs>
</svg>
