<svg width="38" height="38" viewBox="0 0 38 38" fill="none" xmlns="http://www.w3.org/2000/svg">
<rect x="1" y="1" width="36" height="36" rx="18" fill="white"/>
<rect x="1" y="1" width="36" height="36" rx="18" stroke="white" stroke-width="2"/>
<path fill-rule="evenodd" clip-rule="evenodd" d="M16.2844 22.3788V14.8028C18.9739 16.0683 21.0569 17.2909 23.5204 18.6089C21.4885 19.7358 18.9739 21.0001 16.2844 22.3788ZM31.2729 11.0349C30.8089 10.4237 30.0182 9.94792 29.1764 9.7904C26.7021 9.32053 11.2658 9.3192 8.79286 9.7904C8.1178 9.91695 7.51668 10.2228 7.0003 10.6981C4.82451 12.7176 5.5063 23.5473 6.03075 25.3016C6.25128 26.0609 6.53638 26.6085 6.89543 26.968C7.35802 27.4432 7.99138 27.7704 8.71888 27.9172C10.7562 28.3386 21.2519 28.5742 29.1334 27.9805C29.8595 27.8539 30.5023 27.5161 31.0093 27.0207C33.021 25.0093 32.8839 13.5714 31.2729 11.0349Z" fill="#343A40"/>
</svg>
