<svg width="38" height="38" viewBox="0 0 38 38" fill="none" xmlns="http://www.w3.org/2000/svg">
<rect x="1" y="1" width="36" height="36" rx="18" stroke="#212529"/>
<path d="M26.5833 7.08333C26.5833 6.48502 27.0683 6 27.6667 6C28.265 6 28.75 6.48502 28.75 7.08333V7.71797L30.1268 6.34114C30.5498 5.91807 31.2358 5.91807 31.6588 6.34114C32.082 6.7642 32.082 7.45013 31.6588 7.8732L30.282 9.25H30.9167C31.515 9.25 32 9.73503 32 10.3333C32 10.9316 31.515 11.4167 30.9167 11.4167H28.1154L19.7602 19.7719C19.3371 20.1949 18.6512 20.1949 18.2281 19.7719C17.8051 19.3488 17.8051 18.6629 18.2281 18.2398L26.5833 9.88464V7.08333Z" fill="#212529"/>
<path d="M24.8417 10.1048C25.3201 9.62645 25.2483 8.82831 24.653 8.50691C22.9709 7.59879 21.0456 7.08333 19 7.08333C12.4186 7.08333 7.08331 12.4186 7.08331 19C7.08331 25.5814 12.4186 30.9167 19 30.9167C25.5813 30.9167 30.9166 25.5814 30.9166 19C30.9166 16.9583 30.4033 15.0367 29.4985 13.3569C29.1775 12.761 28.3788 12.6888 27.9001 13.1674L27.8677 13.1998C27.51 13.5575 27.4534 14.1124 27.684 14.5626C28.3655 15.8936 28.75 17.402 28.75 19C28.75 24.3848 24.3848 28.75 19 28.75C13.6152 28.75 9.24998 24.3848 9.24998 19C9.24998 13.6152 13.6152 9.24999 19 9.24999C20.6014 9.24999 22.1126 9.63607 23.4457 10.3202C23.8961 10.5514 24.4515 10.4951 24.8096 10.1371L24.8417 10.1048Z" fill="#212529"/>
<path d="M21.5891 13.3576C22.1011 12.8456 21.9723 11.9835 21.2817 11.7659C20.5616 11.539 19.7951 11.4167 19 11.4167C14.8119 11.4167 11.4167 14.8118 11.4167 19C11.4167 23.1882 14.8119 26.5833 19 26.5833C23.1882 26.5833 26.5834 23.1882 26.5834 19C26.5834 18.2094 26.4623 17.4469 26.2379 16.7303C26.0212 16.0388 25.1583 15.9092 24.646 16.4216L24.546 16.5216C24.2414 16.8262 24.1561 17.2801 24.2593 17.6983C24.3621 18.1152 24.4167 18.5513 24.4167 19C24.4167 21.9915 21.9915 24.4167 19 24.4167C16.0085 24.4167 13.5834 21.9915 13.5834 19C13.5834 16.0085 16.0085 13.5833 19 13.5833C19.452 13.5833 19.8911 13.6387 20.3109 13.743C20.7296 13.8471 21.1847 13.762 21.4897 13.4569L21.5891 13.3576Z" fill="#212529"/>
<path d="M18.0012 15.914C18.4447 15.7661 18.6678 16.2788 18.3372 16.6094L17.4646 17.4821C16.6194 18.3272 16.6194 19.6974 17.4646 20.5426C18.3097 21.3877 19.6799 21.3877 20.525 20.5426L21.3867 19.6809C21.718 19.3496 22.2307 19.5743 22.0798 20.018C21.6444 21.2976 20.423 22.25 19 22.25C17.205 22.25 15.75 20.795 15.75 19C15.75 17.5696 16.7123 16.3437 18.0012 15.914Z" fill="#212529"/>
</svg>
