<svg width="38" height="38" viewBox="0 0 38 38" fill="none" xmlns="http://www.w3.org/2000/svg">
<rect x="1" y="1" width="36" height="36" rx="18" fill="white"/>
<rect x="1" y="1" width="36" height="36" rx="18" stroke="white" stroke-width="2"/>
<g clip-path="url(#clip0_10_3)">
<path d="M28.8369 15.5469C28.7206 15.3819 28.5313 15.2831 28.3294 15.2831H15.065L14.0606 11.8206C13.6669 10.4569 12.7313 10.31 12.3475 10.31H9.67C9.32688 10.31 9.04938 10.5881 9.04938 10.9306C9.04938 11.2731 9.3275 11.5512 9.67 11.5512H12.3469C12.4319 11.5512 12.69 11.5512 12.8663 12.16L16.3206 24.8544C16.3956 25.1219 16.64 25.3069 16.9181 25.3069H25.355C25.6169 25.3069 25.8506 25.1431 25.9388 24.8962L28.9125 16.1131C28.9813 15.9231 28.9525 15.7112 28.8363 15.5462L28.8369 15.5469ZM24.9188 24.0662H17.39L15.4144 16.525H27.4475L24.9188 24.0662ZM23.6875 26.565C22.8244 26.565 22.125 27.2644 22.125 28.1275C22.125 28.9906 22.8244 29.69 23.6875 29.69C24.5506 29.69 25.25 28.9906 25.25 28.1275C25.25 27.2644 24.5506 26.565 23.6875 26.565ZM18.0625 26.565C17.1994 26.565 16.5 27.2644 16.5 28.1275C16.5 28.9906 17.1994 29.69 18.0625 29.69C18.9256 29.69 19.625 28.9906 19.625 28.1275C19.625 27.2644 18.9256 26.565 18.0625 26.565Z" fill="#343A40"/>
</g>
<defs>
<clipPath id="clip0_10_3">
<rect width="20" height="20" fill="white" transform="translate(9 10)"/>
</clipPath>
</defs>
</svg>
