<svg width="38" height="38" viewBox="0 0 38 38" fill="none" xmlns="http://www.w3.org/2000/svg">
<rect x="1" y="1" width="36" height="36" rx="18" fill="white"/>
<rect x="1" y="1" width="36" height="36" rx="18" stroke="white" stroke-width="2"/>
<path d="M11.6667 19C8.35296 19 5.66667 21.6863 5.66667 25C5.66667 28.3137 8.35296 31 11.6667 31C14.5212 31 16.9101 29.0066 17.5174 26.3359H20.4826C21.0899 29.0066 23.4788 31 26.3333 31C29.647 31 32.3333 28.3137 32.3333 25C32.3333 21.6863 29.647 19 26.3333 19C23.2448 19 20.7014 21.3336 20.3699 24.3337H17.6301C17.2986 21.3336 14.7552 19 11.6667 19ZM26.3333 21C28.5425 21 30.3333 22.7909 30.3333 25C30.3333 27.2091 28.5425 29 26.3333 29C24.1242 29 22.3333 27.2091 22.3333 25C22.3333 22.7909 24.1242 21 26.3333 21ZM11.6667 21C13.8758 21 15.6667 22.7909 15.6667 25C15.6667 27.2091 13.8758 29 11.6667 29C9.45753 29 7.66667 27.2091 7.66667 25C7.66667 22.7909 9.45753 21 11.6667 21ZM19 15.3333C14.4809 15.3333 10.2932 15.7861 6.43763 16.6932C5.90002 16.8197 5.56675 17.3581 5.69325 17.8957C5.81974 18.4333 6.3581 18.7666 6.89571 18.6401C10.5957 17.7695 14.6302 17.3333 19 17.3333C23.3698 17.3333 27.4043 17.7695 31.1043 18.6401C31.6419 18.7666 32.1803 18.4333 32.3067 17.8957C32.4332 17.3581 32.1 16.8197 31.5624 16.6932C27.7068 15.7861 23.5191 15.3333 19 15.3333ZM14.0663 7.33333C12.7025 7.33333 11.4591 8.08924 10.8269 9.28211L10.7157 9.51082L8.75285 13.9272C8.52855 14.4319 8.75584 15.0228 9.26053 15.2471C9.72315 15.4528 10.2583 15.2789 10.517 14.8598L10.5805 14.7395L12.5433 10.3231C12.7865 9.77593 13.3019 9.40562 13.8884 9.34281L14.0663 9.33333H23.9337C24.5324 9.33333 25.0802 9.6539 25.3758 10.1644L25.4567 10.3231L27.4195 14.7395C27.6438 15.2442 28.2348 15.4714 28.7395 15.2471C29.2021 15.0415 29.4316 14.5278 29.2939 14.0549L29.2471 13.9272L27.2843 9.51082C26.7304 8.26457 25.5347 7.43535 24.1878 7.34211L23.9337 7.33333H14.0663Z" fill="#343A40"/>
</svg>
