<svg width="38" height="38" viewBox="0 0 38 38" fill="none" xmlns="http://www.w3.org/2000/svg">
<rect x="1" y="1" width="36" height="36" rx="18" stroke="#212529"/>
<path fill-rule="evenodd" clip-rule="evenodd" d="M19 25.5C22.5898 25.5 25.5 22.5898 25.5 19C25.5 15.4101 22.5898 12.5 19 12.5C15.4101 12.5 12.5 15.4101 12.5 19C12.5 22.5898 15.4101 25.5 19 25.5ZM19 23.3333C21.3932 23.3333 23.3333 21.3932 23.3333 19C23.3333 16.6068 21.3932 14.6667 19 14.6667C16.6068 14.6667 14.6667 16.6068 14.6667 19C14.6667 21.3932 16.6068 23.3333 19 23.3333Z" fill="#212529"/>
<path d="M25.5 11.4167C24.9017 11.4167 24.4167 11.9017 24.4167 12.5C24.4167 13.0983 24.9017 13.5833 25.5 13.5833C26.0983 13.5833 26.5834 13.0983 26.5834 12.5C26.5834 11.9017 26.0983 11.4167 25.5 11.4167Z" fill="#212529"/>
<path fill-rule="evenodd" clip-rule="evenodd" d="M7.79177 10.6324C7.08331 12.0228 7.08331 13.843 7.08331 17.4833V20.5167C7.08331 24.157 7.08331 25.9772 7.79177 27.3676C8.41495 28.5906 9.40932 29.585 10.6324 30.2082C12.0228 30.9167 13.843 30.9167 17.4833 30.9167H20.5166C24.157 30.9167 25.9772 30.9167 27.3675 30.2082C28.5906 29.585 29.585 28.5906 30.2081 27.3676C30.9166 25.9772 30.9166 24.157 30.9166 20.5167V17.4833C30.9166 13.843 30.9166 12.0228 30.2081 10.6324C29.585 9.40933 28.5906 8.41496 27.3675 7.79178C25.9772 7.08333 24.157 7.08333 20.5166 7.08333H17.4833C13.843 7.08333 12.0228 7.08333 10.6324 7.79178C9.40932 8.41496 8.41495 9.40933 7.79177 10.6324ZM20.5166 9.24999H17.4833C15.6274 9.24999 14.3658 9.25168 13.3906 9.33135C12.4407 9.40896 11.9549 9.54963 11.616 9.7223C10.8007 10.1378 10.1377 10.8007 9.72228 11.616C9.54962 11.9549 9.40895 12.4407 9.33134 13.3906C9.25167 14.3658 9.24998 15.6274 9.24998 17.4833V20.5167C9.24998 22.3726 9.25167 23.6342 9.33134 24.6094C9.40895 25.5594 9.54962 26.0451 9.72228 26.384C10.1377 27.1993 10.8007 27.8622 11.616 28.2777C11.9549 28.4503 12.4407 28.5911 13.3906 28.6686C14.3658 28.7483 15.6274 28.75 17.4833 28.75H20.5166C22.3726 28.75 23.6342 28.7483 24.6094 28.6686C25.5593 28.5911 26.0451 28.4503 26.384 28.2777C27.1993 27.8622 27.8622 27.1993 28.2776 26.384C28.4503 26.0451 28.5911 25.5594 28.6686 24.6094C28.7482 23.6342 28.75 22.3726 28.75 20.5167V17.4833C28.75 15.6274 28.7482 14.3658 28.6686 13.3906C28.5911 12.4407 28.4503 11.9549 28.2776 11.616C27.8622 10.8007 27.1993 10.1378 26.384 9.7223C26.0451 9.54963 25.5593 9.40896 24.6094 9.33135C23.6342 9.25168 22.3726 9.24999 20.5166 9.24999Z" fill="#212529"/>
</svg>
